<!--?xml version="1.0" encoding="us-ascii" standalone="no"?--><svg xmlns="http://www.w3.org/2000/svg" xmlns:xlink="http://www.w3.org/1999/xlink" contentStyleType="text/css" height="646px" preserveAspectRatio="none" style="width:446px;height:646px;background:#FFFFFF;" version="1.1" viewBox="0 0 446 646" width="446px" zoomAndPan="magnify"><defs></defs><g><!--class LearningFact--><g id="elem_LearningFact"><rect codeline="1" fill="#F1F1F1" height="96.8906" id="LearningFact" rx="2.5" ry="2.5" style="stroke:#181818;stroke-width:0.5;" width="157" x="148" y="542.86"></rect><ellipse cx="179.65" cy="558.86" fill="#ADD1B2" rx="11" ry="11" style="stroke:#181818;stroke-width:1.0;"></ellipse><path d="M182.6188,564.5006 Q182.0406,564.7975 181.4,564.9381 Q180.7594,565.0944 180.0563,565.0944 Q177.5563,565.0944 176.2281,563.4538 Q174.9156,561.7975 174.9156,558.6725 Q174.9156,555.5475 176.2281,553.8913 Q177.5563,552.235 180.0563,552.235 Q180.7594,552.235 181.4,552.3913 Q182.0563,552.5475 182.6188,552.8444 L182.6188,555.5631 Q181.9938,554.985 181.4,554.7194 Q180.8063,554.4381 180.1813,554.4381 Q178.8375,554.4381 178.15,555.5163 Q177.4625,556.5788 177.4625,558.6725 Q177.4625,560.7663 178.15,561.8444 Q178.8375,562.9069 180.1813,562.9069 Q180.8063,562.9069 181.4,562.6413 Q181.9938,562.36 182.6188,561.7819 L182.6188,564.5006 Z " fill="#000000"></path><text fill="#000000" font-family="sans-serif" font-size="14" lengthAdjust="spacing" textLength="88" x="197.35" y="563.7067">LearningFact</text><line style="stroke:#181818;stroke-width:0.5;" x1="149" x2="304" y1="574.86" y2="574.86"></line><rect fill="none" height="6" style="stroke:#C82930;stroke-width:1.0;" width="6" x="156" y="585.5084"></rect><text fill="#000000" font-family="sans-serif" font-size="14" lengthAdjust="spacing" textLength="60" x="168" y="591.8551">id: string</text><rect fill="none" height="6" style="stroke:#C82930;stroke-width:1.0;" width="6" x="156" y="601.8053"></rect><text fill="#000000" font-family="sans-serif" font-size="14" lengthAdjust="spacing" textLength="102" x="168" y="608.152">content: string</text><rect fill="none" height="6" style="stroke:#C82930;stroke-width:1.0;" width="6" x="156" y="618.1022"></rect><text fill="#000000" font-family="sans-serif" font-size="14" lengthAdjust="spacing" textLength="131" x="168" y="624.4489">creationDate: Date</text><line style="stroke:#181818;stroke-width:0.5;" x1="149" x2="304" y1="631.7506" y2="631.7506"></line></g><!--class LearningPackage--><g id="elem_LearningPackage"><rect codeline="7" fill="#F1F1F1" height="145.7813" id="LearningPackage" rx="2.5" ry="2.5" style="stroke:#181818;stroke-width:0.5;" width="205" x="7" y="337.08"></rect><ellipse cx="46.75" cy="353.08" fill="#ADD1B2" rx="11" ry="11" style="stroke:#181818;stroke-width:1.0;"></ellipse><path d="M49.7188,358.7206 Q49.1406,359.0175 48.5,359.1581 Q47.8594,359.3144 47.1563,359.3144 Q44.6563,359.3144 43.3281,357.6738 Q42.0156,356.0175 42.0156,352.8925 Q42.0156,349.7675 43.3281,348.1113 Q44.6563,346.455 47.1563,346.455 Q47.8594,346.455 48.5,346.6113 Q49.1563,346.7675 49.7188,347.0644 L49.7188,349.7831 Q49.0938,349.205 48.5,348.9394 Q47.9063,348.6581 47.2813,348.6581 Q45.9375,348.6581 45.25,349.7363 Q44.5625,350.7988 44.5625,352.8925 Q44.5625,354.9863 45.25,356.0644 Q45.9375,357.1269 47.2813,357.1269 Q47.9063,357.1269 48.5,356.8613 Q49.0938,356.58 49.7188,356.0019 L49.7188,358.7206 Z " fill="#000000"></path><text fill="#000000" font-family="sans-serif" font-size="14" lengthAdjust="spacing" textLength="118" x="66.25" y="357.9267">LearningPackage</text><line style="stroke:#181818;stroke-width:0.5;" x1="8" x2="211" y1="369.08" y2="369.08"></line><rect fill="none" height="6" style="stroke:#C82930;stroke-width:1.0;" width="6" x="15" y="379.7284"></rect><text fill="#000000" font-family="sans-serif" font-size="14" lengthAdjust="spacing" textLength="60" x="27" y="386.0751">id: string</text><rect fill="none" height="6" style="stroke:#C82930;stroke-width:1.0;" width="6" x="15" y="396.0253"></rect><text fill="#000000" font-family="sans-serif" font-size="14" lengthAdjust="spacing" textLength="73" x="27" y="402.372">title: string</text><rect fill="none" height="6" style="stroke:#C82930;stroke-width:1.0;" width="6" x="15" y="412.3222"></rect><text fill="#000000" font-family="sans-serif" font-size="14" lengthAdjust="spacing" textLength="125" x="27" y="418.6689">description: string</text><rect fill="none" height="6" style="stroke:#C82930;stroke-width:1.0;" width="6" x="15" y="428.6191"></rect><text fill="#000000" font-family="sans-serif" font-size="14" lengthAdjust="spacing" textLength="108" x="27" y="434.9657">category: string</text><rect fill="none" height="6" style="stroke:#C82930;stroke-width:1.0;" width="6" x="15" y="444.9159"></rect><text fill="#000000" font-family="sans-serif" font-size="14" lengthAdjust="spacing" textLength="154" x="27" y="451.2626">targetAudience: string</text><line style="stroke:#181818;stroke-width:0.5;" x1="8" x2="211" y1="458.5644" y2="458.5644"></line><rect fill="#F24D5C" height="6" style="stroke:#C82930;stroke-width:1.0;" width="6" x="15" y="469.2128"></rect><text fill="#000000" font-family="sans-serif" font-size="14" lengthAdjust="spacing" textLength="179" x="27" y="475.5595">difficultyLevel: int (1 to 20)</text></g><!--class UserPackageLearning--><g id="elem_UserPackageLearning"><rect codeline="16" fill="#F1F1F1" height="113.1875" id="UserPackageLearning" rx="2.5" ry="2.5" style="stroke:#181818;stroke-width:0.5;" width="221" x="34" y="163.89"></rect><ellipse cx="66.55" cy="179.89" fill="#ADD1B2" rx="11" ry="11" style="stroke:#181818;stroke-width:1.0;"></ellipse><path d="M69.5188,185.5306 Q68.9406,185.8275 68.3,185.9681 Q67.6594,186.1244 66.9563,186.1244 Q64.4563,186.1244 63.1281,184.4838 Q61.8156,182.8275 61.8156,179.7025 Q61.8156,176.5775 63.1281,174.9213 Q64.4563,173.265 66.9563,173.265 Q67.6594,173.265 68.3,173.4213 Q68.9563,173.5775 69.5188,173.8744 L69.5188,176.5931 Q68.8938,176.015 68.3,175.7494 Q67.7063,175.4681 67.0813,175.4681 Q65.7375,175.4681 65.05,176.5463 Q64.3625,177.6088 64.3625,179.7025 Q64.3625,181.7963 65.05,182.8744 Q65.7375,183.9369 67.0813,183.9369 Q67.7063,183.9369 68.3,183.6713 Q68.8938,183.39 69.5188,182.8119 L69.5188,185.5306 Z " fill="#000000"></path><text fill="#000000" font-family="sans-serif" font-size="14" lengthAdjust="spacing" textLength="150" x="84.45" y="184.7367">UserPackageLearning</text><line style="stroke:#181818;stroke-width:0.5;" x1="35" x2="254" y1="195.89" y2="195.89"></line><rect fill="none" height="6" style="stroke:#C82930;stroke-width:1.0;" width="6" x="42" y="206.5384"></rect><text fill="#000000" font-family="sans-serif" font-size="14" lengthAdjust="spacing" textLength="60" x="54" y="212.8851">id: string</text><rect fill="none" height="6" style="stroke:#C82930;stroke-width:1.0;" width="6" x="42" y="222.8353"></rect><text fill="#000000" font-family="sans-serif" font-size="14" lengthAdjust="spacing" textLength="106" x="54" y="229.182">startDate: Date</text><rect fill="none" height="6" style="stroke:#C82930;stroke-width:1.0;" width="6" x="42" y="239.1322"></rect><text fill="#000000" font-family="sans-serif" font-size="14" lengthAdjust="spacing" textLength="167" x="54" y="245.4789">expectedEndDate: Date</text><rect fill="none" height="6" style="stroke:#C82930;stroke-width:1.0;" width="6" x="42" y="255.4291"></rect><text fill="#000000" font-family="sans-serif" font-size="14" lengthAdjust="spacing" textLength="195" x="54" y="261.7757">minutesPerDayObjective: int</text><line style="stroke:#181818;stroke-width:0.5;" x1="35" x2="254" y1="269.0775" y2="269.0775"></line></g><!--class UserLearningFact--><g id="elem_UserLearningFact"><rect codeline="23" fill="#F1F1F1" height="113.1875" id="UserLearningFact" rx="2.5" ry="2.5" style="stroke:#181818;stroke-width:0.5;" width="192" x="247.5" y="353.37"></rect><ellipse cx="280.5" cy="369.37" fill="#ADD1B2" rx="11" ry="11" style="stroke:#181818;stroke-width:1.0;"></ellipse><path d="M283.4688,375.0106 Q282.8906,375.3075 282.25,375.4481 Q281.6094,375.6044 280.9063,375.6044 Q278.4063,375.6044 277.0781,373.9638 Q275.7656,372.3075 275.7656,369.1825 Q275.7656,366.0575 277.0781,364.4013 Q278.4063,362.745 280.9063,362.745 Q281.6094,362.745 282.25,362.9013 Q282.9063,363.0575 283.4688,363.3544 L283.4688,366.0731 Q282.8438,365.495 282.25,365.2294 Q281.6563,364.9481 281.0313,364.9481 Q279.6875,364.9481 279,366.0263 Q278.3125,367.0888 278.3125,369.1825 Q278.3125,371.2763 279,372.3544 Q279.6875,373.4169 281.0313,373.4169 Q281.6563,373.4169 282.25,373.1513 Q282.8438,372.87 283.4688,372.2919 L283.4688,375.0106 Z " fill="#000000"></path><text fill="#000000" font-family="sans-serif" font-size="14" lengthAdjust="spacing" textLength="120" x="298.5" y="374.2167">UserLearningFact</text><line style="stroke:#181818;stroke-width:0.5;" x1="248.5" x2="438.5" y1="385.37" y2="385.37"></line><rect fill="none" height="6" style="stroke:#C82930;stroke-width:1.0;" width="6" x="255.5" y="396.0184"></rect><text fill="#000000" font-family="sans-serif" font-size="14" lengthAdjust="spacing" textLength="60" x="267.5" y="402.3651">id: string</text><rect fill="none" height="6" style="stroke:#C82930;stroke-width:1.0;" width="6" x="255.5" y="412.3153"></rect><text fill="#000000" font-family="sans-serif" font-size="14" lengthAdjust="spacing" textLength="131" x="267.5" y="418.662">timesReviewed: int</text><rect fill="none" height="6" style="stroke:#C82930;stroke-width:1.0;" width="6" x="255.5" y="428.6122"></rect><text fill="#000000" font-family="sans-serif" font-size="14" lengthAdjust="spacing" textLength="138" x="267.5" y="434.9589">confidenceLevel: int</text><rect fill="none" height="6" style="stroke:#C82930;stroke-width:1.0;" width="6" x="255.5" y="444.9091"></rect><text fill="#000000" font-family="sans-serif" font-size="14" lengthAdjust="spacing" textLength="166" x="267.5" y="451.2557">lastReviewedDate: Date</text><line style="stroke:#181818;stroke-width:0.5;" x1="248.5" x2="438.5" y1="458.5575" y2="458.5575"></line></g><!--class User--><g id="elem_User"><rect codeline="30" fill="#F1F1F1" height="96.8906" id="User" rx="2.5" ry="2.5" style="stroke:#181818;stroke-width:0.5;" width="144" x="153.5" y="7"></rect><ellipse cx="205.25" cy="23" fill="#ADD1B2" rx="11" ry="11" style="stroke:#181818;stroke-width:1.0;"></ellipse><path d="M208.2188,28.6406 Q207.6406,28.9375 207,29.0781 Q206.3594,29.2344 205.6563,29.2344 Q203.1563,29.2344 201.8281,27.5938 Q200.5156,25.9375 200.5156,22.8125 Q200.5156,19.6875 201.8281,18.0313 Q203.1563,16.375 205.6563,16.375 Q206.3594,16.375 207,16.5313 Q207.6563,16.6875 208.2188,16.9844 L208.2188,19.7031 Q207.5938,19.125 207,18.8594 Q206.4063,18.5781 205.7813,18.5781 Q204.4375,18.5781 203.75,19.6563 Q203.0625,20.7188 203.0625,22.8125 Q203.0625,24.9063 203.75,25.9844 Q204.4375,27.0469 205.7813,27.0469 Q206.4063,27.0469 207,26.7813 Q207.5938,26.5 208.2188,25.9219 L208.2188,28.6406 Z " fill="#000000"></path><text fill="#000000" font-family="sans-serif" font-size="14" lengthAdjust="spacing" textLength="32" x="225.75" y="27.8467">User</text><line style="stroke:#181818;stroke-width:0.5;" x1="154.5" x2="296.5" y1="39" y2="39"></line><rect fill="none" height="6" style="stroke:#C82930;stroke-width:1.0;" width="6" x="161.5" y="49.6484"></rect><text fill="#000000" font-family="sans-serif" font-size="14" lengthAdjust="spacing" textLength="60" x="173.5" y="55.9951">id: string</text><rect fill="none" height="6" style="stroke:#C82930;stroke-width:1.0;" width="6" x="161.5" y="65.9453"></rect><text fill="#000000" font-family="sans-serif" font-size="14" lengthAdjust="spacing" textLength="118" x="173.5" y="72.292">username: string</text><rect fill="none" height="6" style="stroke:#C82930;stroke-width:1.0;" width="6" x="161.5" y="82.2422"></rect><text fill="#000000" font-family="sans-serif" font-size="14" lengthAdjust="spacing" textLength="84" x="173.5" y="88.5889">email: string</text><line style="stroke:#181818;stroke-width:0.5;" x1="154.5" x2="296.5" y1="95.8906" y2="95.8906"></line></g><!--link LearningPackage to LearningFact--><g id="link_LearningPackage_LearningFact"><path codeline="36" d="M156.58,483.14 C169.6,503.09 183.4,524.24 195.27,542.44 " fill="none" id="LearningPackage-LearningFact" style="stroke:#181818;stroke-width:1.0;"></path><text fill="#000000" font-family="sans-serif" font-size="13" lengthAdjust="spacing" textLength="8" x="152.6861" y="502.902">1</text><text fill="#000000" font-family="sans-serif" font-size="13" lengthAdjust="spacing" textLength="23" x="166.5282" y="531.9417">0..*</text></g><!--link UserPackageLearning to LearningPackage--><g id="link_UserPackageLearning_LearningPackage"><path codeline="38" d="M134.05,277.48 C130.58,296.04 126.67,316.97 123.01,336.58 " fill="none" id="UserPackageLearning-LearningPackage" style="stroke:#181818;stroke-width:1.0;"></path><text fill="#000000" font-family="sans-serif" font-size="13" lengthAdjust="spacing" textLength="23" x="108.512" y="297.012">0..*</text><text fill="#000000" font-family="sans-serif" font-size="13" lengthAdjust="spacing" textLength="8" x="115.9164" y="325.9433">1</text></g><!--link UserLearningFact to LearningFact--><g id="link_UserLearningFact_LearningFact"><path codeline="40" d="M307.12,466.73 C291.29,490.99 272.92,519.15 257.72,542.44 " fill="none" id="UserLearningFact-LearningFact" style="stroke:#181818;stroke-width:1.0;"></path><text fill="#000000" font-family="sans-serif" font-size="13" lengthAdjust="spacing" textLength="23" x="278.2846" y="486.6374">0..*</text><text fill="#000000" font-family="sans-serif" font-size="13" lengthAdjust="spacing" textLength="8" x="253.3777" y="531.9417">1</text></g><!--link User to UserPackageLearning--><g id="link_User_UserPackageLearning"><path codeline="42" d="M201.85,104.04 C192.61,122.65 181.94,144.13 172.32,163.48 " fill="none" id="User-UserPackageLearning" style="stroke:#181818;stroke-width:1.0;"></path><text fill="#000000" font-family="sans-serif" font-size="13" lengthAdjust="spacing" textLength="8" x="189.9617" y="124.0045">1</text><text fill="#000000" font-family="sans-serif" font-size="13" lengthAdjust="spacing" textLength="23" x="151.309" y="152.6936">0..*</text></g><!--link User to UserLearningFact--><g id="link_User_UserLearningFact"><path codeline="43" d="M248.03,104.31 C256.28,122.72 265.33,144.07 272.5,163.89 C295.64,227.83 316.55,303.21 329.59,353.31 " fill="none" id="User-UserLearningFact" style="stroke:#181818;stroke-width:1.0;"></path><text fill="#000000" font-family="sans-serif" font-size="13" lengthAdjust="spacing" textLength="8" x="242.52" y="123.9598">1</text><text fill="#000000" font-family="sans-serif" font-size="13" lengthAdjust="spacing" textLength="23" x="303.3343" y="342.1657">0..*</text></g><!--SRC=[XLB1JiCm3BtdAwoU0AdJoh4tfB7J92OaFY0aRcLeqobn2nNYtqcwZYvL49TAVNv-xzcEQgHpS41f3PbwBnN3bm38WNG9Zgq7fr_L6KR3CMPHCdLc9nbB25_nBOIA58zIlSiQqw9Ct624Q7JAqYcenbPUlExi6BTBMoC_z9hGg9KELHMflk7nW0Cs9P1Xk2c0ExZVtYunNnpQEU8bSJggysPyDMZ0yFE4Yb4_6hsgj6HwHdT4kvFZq-kRfz60KuhO-__5CxNedd4W_41zLfZlKP4ESoy3JWKlpHTwwZ31DUtK-ugHRRn8R2KrluXNMHysApB8SyYscyrT5Zqa8LBRdOcXfSZMp-JS4YqbpL_qLm4Ibd_HhhL-0000]--></g></svg>